<svg width="14" height="14" viewBox="0 0 14 14" fill="none" xmlns="http://www.w3.org/2000/svg">
<path d="M13.3234 6.99967C13.3234 3.51289 10.4894 0.678839 7.0026 0.678839C3.51582 0.678839 0.68177 3.51289 0.68177 6.99967C0.68177 10.4865 3.51582 13.3205 7.0026 13.3205C10.4894 13.3205 13.3234 10.4865 13.3234 6.99967ZM12.3484 6.99967C12.3484 9.94706 9.94999 12.3455 7.0026 12.3455C4.05522 12.3455 1.65677 9.94706 1.65677 6.99967C1.65677 4.05229 4.05522 1.65384 7.0026 1.65384C9.94999 1.65384 12.3484 4.05229 12.3484 6.99967Z" fill="#6C7675" stroke="#6C7675" stroke-width="0.1"/>
<path d="M5.28624 5.92003C5.18887 5.82266 5.0651 5.77706 4.94172 5.77706C4.81834 5.77706 4.69457 5.82266 4.5972 5.92003C4.4085 6.10873 4.4085 6.42039 4.5972 6.60908L6.65636 8.66825C6.84506 8.85694 7.15671 8.85694 7.34541 8.66825L9.40457 6.60908C9.59327 6.42039 9.59327 6.10873 9.40457 5.92004C9.21588 5.73134 8.90422 5.73134 8.71553 5.92004L7.00089 7.63468L5.28624 5.92003Z" fill="#6C7675" stroke="#6C7675" stroke-width="0.1"/>
</svg>
