<svg width="128" height="40" viewBox="0 0 128 40" fill="none" xmlns="http://www.w3.org/2000/svg">
<path d="M82.0036 17.3057C82.0036 17.4899 81.946 17.6511 81.8309 17.7892C81.7158 17.9274 81.5776 18.0425 81.4164 18.1346C81.2553 18.2037 81.0826 18.2613 80.8984 18.3073C80.7372 18.3534 80.599 18.3764 80.4839 18.3764C80.0004 18.3764 79.5859 18.1231 79.2405 17.6166C78.8952 17.087 78.6074 16.5113 78.3771 15.8897C78.1468 15.245 77.9742 14.6463 77.859 14.0937C77.7669 13.5411 77.7209 13.2418 77.7209 13.1957C77.5827 13.449 77.4331 13.875 77.2719 14.4736C77.1337 15.0723 76.961 15.6824 76.7538 16.3041C76.5466 16.9028 76.2818 17.4439 75.9595 17.9274C75.6601 18.3879 75.2687 18.6182 74.7852 18.6182C74.5549 18.6182 74.3362 18.48 74.1289 18.2037C73.9217 17.9274 73.726 17.5705 73.5418 17.133C73.3576 16.6955 73.1734 16.2005 72.9892 15.6479C72.828 15.0953 72.6553 14.5542 72.4711 14.0246C72.31 13.495 72.1488 13 71.9876 12.5395C71.8264 12.056 71.6653 11.6761 71.5041 11.3997C71.3659 11.7451 71.2393 12.2171 71.1242 12.8158C71.0321 13.4145 70.9515 14.0476 70.8824 14.7154C70.8133 15.3601 70.7558 16.0048 70.7097 16.6495C70.6637 17.2942 70.6406 17.8583 70.6406 18.3419C70.6406 18.6642 70.5485 18.8945 70.3643 19.0326C70.2031 19.1708 70.0305 19.2398 69.8463 19.2398C69.593 19.2398 69.3397 19.0787 69.0864 18.7563C68.8331 18.4109 68.5799 17.9735 68.3266 17.4439C68.0733 16.9143 67.8316 16.3156 67.6013 15.6479C67.3941 14.9802 67.1983 14.3124 67.0141 13.6447C66.853 12.977 66.7263 12.3438 66.6342 11.7451C66.5421 11.1234 66.4961 10.6054 66.4961 10.1909C66.4961 9.8916 66.5076 9.61529 66.5306 9.36202C66.5537 9.15479 66.5652 8.95907 66.5652 8.77487C66.5882 8.59067 66.5997 8.48706 66.5997 8.46403C66.5997 8.39496 66.5767 8.34891 66.5306 8.32588C66.5076 8.30286 66.4961 8.24529 66.4961 8.15319C66.4961 8.08412 66.5767 7.9805 66.7378 7.84235C66.922 7.68117 67.1062 7.60059 67.2904 7.60059C67.6128 7.60059 67.82 7.66966 67.9121 7.80781C68.0273 7.94596 68.0848 8.10714 68.0848 8.29134C68.0848 8.36042 68.0733 8.46403 68.0503 8.60218C68.0503 8.74033 68.0503 9.05117 68.0503 9.5347C68.0503 9.85706 68.1079 10.3406 68.223 10.9853C68.3381 11.63 68.4763 12.2862 68.6374 12.954C68.7986 13.6217 68.9598 14.2434 69.121 14.819C69.3052 15.3716 69.4548 15.717 69.57 15.8551C69.616 15.763 69.639 15.6594 69.639 15.5443C69.662 15.4061 69.6851 15.3025 69.7081 15.2334L70.088 12.4013C70.1801 11.6876 70.3643 10.9392 70.6406 10.1564C70.9399 9.3505 71.2508 8.72882 71.5731 8.29134C71.6883 8.10714 71.8149 8.01504 71.9531 8.01504C72.0912 8.01504 72.2179 8.11865 72.333 8.32588C72.7244 8.97059 73.0122 9.61529 73.1964 10.26C73.4037 10.8817 73.5763 11.5034 73.7145 12.125C73.8757 12.7237 74.0484 13.3339 74.2326 13.9555C74.4398 14.5542 74.7506 15.1644 75.1651 15.7861C75.3493 15.4867 75.5795 15.0032 75.8558 14.3355C76.1321 13.6447 76.4084 12.9539 76.6847 12.2632C76.9841 11.5724 77.2604 10.9738 77.5137 10.4672C77.7669 9.93765 77.9626 9.67286 78.1008 9.67286C78.1699 9.67286 78.285 9.68437 78.4462 9.70739C78.6073 9.73042 78.7225 9.74193 78.7916 9.74193C78.9988 9.74193 79.1715 9.9837 79.3096 10.4672C79.4478 10.9277 79.5629 11.4803 79.655 12.125C79.7701 12.7467 79.8737 13.3799 79.9658 14.0246C80.081 14.6463 80.2076 15.1183 80.3458 15.4407C80.4379 15.6709 80.576 15.8897 80.7602 16.0969C80.9444 16.3041 81.1286 16.4998 81.3128 16.684C81.5431 16.8913 81.7733 17.0985 82.0036 17.3057Z" fill="#FFFCF7"/>
<path d="M64.1378 4.38867C63.8385 5.97741 63.5622 7.50859 63.3089 8.98221C63.1938 9.60389 63.0786 10.2601 62.9635 10.9509C62.8484 11.6186 62.7332 12.2863 62.6181 12.9541C62.526 13.5988 62.4339 14.2204 62.3418 14.8191C62.2727 15.3947 62.2152 15.9243 62.1691 16.4078C62.077 17.1446 62.0079 17.9851 61.9619 18.9291C61.9158 19.8731 61.8698 20.7711 61.8237 21.6231C61.7777 22.6131 61.7547 23.6147 61.7547 24.6278C61.7547 24.8351 61.7316 25.0653 61.6856 25.3186C61.6395 25.5719 61.6165 25.8252 61.6165 26.0784C61.6165 26.3087 61.5589 26.5044 61.4438 26.6656C61.3517 26.8268 61.2021 26.9073 60.9948 26.9073C60.8106 26.9073 60.661 26.7577 60.5458 26.4583C60.4537 26.182 60.3732 25.8482 60.3041 25.4568C60.235 25.0884 60.189 24.7084 60.1659 24.317C60.1429 23.9486 60.1314 23.6838 60.1314 23.5226C60.1314 23.3384 60.1314 23.1082 60.1314 22.8319C60.1314 22.5786 60.1429 22.1872 60.1659 21.6576C60.212 21.151 60.2695 20.4833 60.3386 19.6544C60.4077 18.8025 60.5113 17.6973 60.6495 16.3388C60.6495 16.3157 60.4883 16.2006 60.1659 15.9934C59.8666 15.7862 59.4867 15.5329 59.0262 15.2336C58.5887 14.9112 58.1282 14.5658 57.6447 14.1974C57.1842 13.829 56.7927 13.4721 56.4704 13.1267C56.4243 13.0807 56.3553 12.9771 56.2632 12.8159C56.1711 12.6547 56.125 12.459 56.125 12.2288C56.125 12.1136 56.1826 11.9985 56.2977 11.8834C56.4128 11.7452 56.5395 11.6762 56.6776 11.6762C56.7697 11.6762 56.8618 11.7222 56.9539 11.8143C57.4835 12.2748 58.0937 12.7929 58.7844 13.3685C59.4752 13.9211 60.1544 14.4277 60.8222 14.8882C60.8682 14.4737 60.9603 13.8405 61.0985 12.9886C61.2596 12.1367 61.4208 11.2272 61.582 10.2601C61.7432 9.27002 61.8928 8.31447 62.031 7.39347C62.1922 6.47246 62.3073 5.73565 62.3764 5.18304C62.3764 5.09094 62.3994 4.94128 62.4454 4.73405C62.4915 4.52683 62.5606 4.3196 62.6527 4.11237C62.7448 3.90515 62.8484 3.73246 62.9635 3.5943C63.0786 3.43313 63.2053 3.35254 63.3434 3.35254C63.4125 3.35254 63.5621 3.42161 63.7924 3.55977C64.0227 3.67489 64.1378 3.9512 64.1378 4.38867Z" fill="#FFFCF7"/>
<path d="M54.2721 22.8402C54.2721 23.3054 54.1799 23.7208 53.9955 24.0864C53.8112 24.4852 53.5922 24.8175 53.3386 25.0834C53.0851 25.3493 52.82 25.5487 52.5435 25.6816C52.2669 25.8478 52.0364 25.9309 51.852 25.9309C51.2988 25.9309 50.6535 25.7979 49.9159 25.5321C49.2014 25.2994 48.533 24.9006 47.9107 24.3357C47.2653 23.8039 46.7237 23.106 46.2858 22.242C45.8479 21.4111 45.6289 20.3809 45.6289 19.1513C45.6289 19.0183 45.6519 18.8854 45.698 18.7525C45.7441 18.6528 45.8248 18.6029 45.9401 18.6029C46.1014 18.6029 46.3088 18.8522 46.5624 19.3507C46.7928 19.8824 47.1155 20.464 47.5304 21.0954C47.9453 21.7268 48.4754 22.2918 49.1208 22.7903C49.7661 23.322 50.5959 23.5879 51.61 23.5879C51.9327 23.5879 52.1516 23.5381 52.2669 23.4384C52.4052 23.3387 52.4743 23.0063 52.4743 22.4414C52.4743 21.9096 52.4167 21.328 52.3015 20.6966C52.2093 20.0652 52.094 19.4337 51.9557 18.8023C51.8174 18.2041 51.6791 17.6225 51.5409 17.0576C51.4256 16.4926 51.3334 16.0107 51.2643 15.6119C51.2412 15.5122 51.1606 15.0968 51.0223 14.3657C50.907 13.6013 50.7803 12.7372 50.642 11.7735C50.5037 10.7765 50.3769 9.8127 50.2617 8.88217C50.1464 7.95163 50.0888 7.27035 50.0888 6.83832C50.0888 6.60569 50.1118 6.28997 50.1579 5.89117C50.204 5.49237 50.3538 5.29297 50.6074 5.29297C50.7226 5.29297 50.8494 5.50899 50.9877 5.94102C51.126 6.33982 51.2643 6.85493 51.4026 7.48637C51.5639 8.08457 51.7022 8.74923 51.8174 9.48037C51.9557 10.2115 52.071 10.9094 52.1632 11.5741C52.2784 12.2055 52.3706 12.7539 52.4398 13.2191C52.5089 13.6844 52.555 13.9669 52.578 14.0666C52.6241 14.3324 52.7394 14.8143 52.9238 15.5122C53.1082 16.2101 53.2926 17.0077 53.4769 17.905C53.6844 18.7691 53.8688 19.6498 54.0301 20.5471C54.1914 21.4444 54.2721 22.2087 54.2721 22.8402Z" fill="#FFFCF7"/>
<path d="M51.3533 1.55566C51.4916 1.39191 51.5608 1.28274 51.5608 1.22815C51.5608 1.09169 51.4801 0.955228 51.3188 0.818767C51.1574 0.655013 50.9615 0.518553 50.731 0.409384C50.5236 0.272922 50.3046 0.177399 50.0741 0.122815C49.8436 0.040938 49.6593 0 49.521 0C49.3135 0 49.1407 0.0682294 49.0024 0.204691C48.8641 0.31386 48.7488 0.463968 48.6566 0.655013C48.5875 0.818767 48.5299 0.996167 48.4838 1.18721C48.4607 1.37826 48.4492 1.54201 48.4492 1.67847C48.4492 2.00598 48.6105 2.26526 48.9332 2.4563C49.279 2.64735 49.6362 2.74287 50.005 2.74287C50.0972 2.74287 50.224 2.67464 50.3853 2.53818C50.5697 2.40172 50.7425 2.25161 50.9039 2.08786C51.0883 1.89681 51.2381 1.71941 51.3533 1.55566Z" fill="#FFFCF7"/>
<path d="M1 38.3899C6.33224 38.8787 11.6343 38.8805 15.5773 35.8261C19.3077 32.9365 21.5874 29.1655 24.0206 25.7079C25.3033 23.8852 27.2513 19.994 30.0584 18.8712C33.0112 17.6902 35.7656 23.1338 36.2165 23.7594C38.2715 26.6109 40.3909 31.1277 44.299 33.0915C51.1315 36.5247 54.2871 24.9987 59.9347 24.7507C65.6693 24.4989 68.9186 31.6962 72.1546 34.0144C75.6981 36.553 78.5138 31.4698 79.9966 29.9124C84.7652 24.9037 89.8754 27.7403 95.6323 30.2884C105.581 34.6918 115.685 34.7924 127 34.3904" stroke="#FFFCF7" stroke-width="0.833333" stroke-linecap="round"/>
</svg>
