<svg width="24" height="24" viewBox="0 0 24 24" fill="none" xmlns="http://www.w3.org/2000/svg">
<g clip-path="url(#clip0_1119_877)">
<path d="M11.0257 24.0001C10.4168 23.9156 9.808 23.8373 9.20729 23.6946C4.58312 22.5969 0.973894 18.81 0.193604 14.1182C-0.519106 9.82936 0.741121 6.1526 3.88856 3.16238C5.68003 1.46012 7.84632 0.431876 10.2973 0.117709C14.4128 -0.409241 17.9482 0.833034 20.809 3.84516C22.5798 5.70888 23.6054 7.95687 23.9252 10.5165C23.9483 10.7018 23.9752 10.8864 24.0003 11.071V12.9917C23.9446 13.3691 23.8976 13.7471 23.8326 14.1226C23.0222 18.7944 19.433 22.5976 14.8107 23.6946C14.2107 23.8373 13.6018 23.9162 12.993 24.0001H11.0257ZM23.1762 12.0022C23.148 5.80651 18.1841 0.843673 12.0106 0.844925C5.76951 0.846802 0.832478 5.88036 0.848122 12.0229C0.863765 18.2918 5.91906 23.1852 12.0168 23.1715C18.2491 23.1577 23.1555 18.1316 23.1762 12.0022Z" fill="#FFFCF7"/>
<path d="M17.709 18.6436C17.7648 19.3269 17.5976 19.9194 16.9999 20.3171C16.4404 20.6897 15.8365 20.7325 15.2389 20.4256C14.648 20.1225 14.3251 19.6232 14.3518 18.9467C14.416 17.3213 14.4954 15.6974 14.5679 14.072C14.6099 13.1314 14.6496 12.1901 14.6915 11.2495C14.6976 11.1197 14.6786 11.0113 14.5526 10.9319C13.6893 10.3875 13.3748 9.55842 13.3213 8.58348C13.258 7.44286 13.5419 6.36638 13.9671 5.33494C14.3244 4.46841 15.0358 4.01262 15.9854 4.00117C16.9434 3.99048 17.6816 4.41955 18.0571 5.29524C18.5869 6.53205 18.8915 7.82688 18.6563 9.18967C18.5342 9.89816 18.1785 10.4708 17.5777 10.8708C17.4029 10.9876 17.3457 11.1166 17.3548 11.3174C17.4556 13.4742 17.5495 15.631 17.648 17.7878C17.6609 18.0726 17.6884 18.3566 17.709 18.6413V18.6436ZM15.4037 18.368C15.4037 18.6352 15.4014 18.8353 15.4037 19.0353C15.4068 19.233 15.5007 19.3811 15.6694 19.4796C16.1243 19.7445 16.6526 19.4644 16.6457 18.9421C16.635 18.1428 16.6029 17.3442 16.5671 16.5456C16.4816 14.6545 16.3907 12.7634 16.2953 10.8731C16.2778 10.5204 16.4251 10.3005 16.7411 10.157C17.3258 9.89053 17.5976 9.40649 17.6632 8.78274C17.7739 7.73985 17.5121 6.75804 17.1541 5.79913C16.9663 5.29524 16.564 5.04483 16.019 5.04559C15.474 5.04635 15.0732 5.30059 14.89 5.806C14.5618 6.71147 14.303 7.6322 14.3717 8.61936C14.4213 9.33472 14.6854 9.88442 15.364 10.1875C15.6526 10.3158 15.7678 10.541 15.7518 10.8517C15.7236 11.4029 15.7068 11.9542 15.6808 12.5054C15.5885 14.482 15.4946 16.4578 15.4037 18.3673V18.368Z" fill="#FFFCF7"/>
<path d="M11.4121 6.71626C11.4121 7.39268 11.4045 8.06911 11.4159 8.74478C11.4198 9.00359 11.3335 9.20362 11.1526 9.38074C10.819 9.70674 10.4961 10.0442 10.1595 10.3671C10.0244 10.4969 9.96864 10.6359 9.97857 10.8222C10.0518 12.1422 10.1205 13.463 10.1885 14.7838C10.2335 15.6679 10.277 16.5512 10.319 17.4353C10.3419 17.9201 10.3747 18.4049 10.3786 18.8897C10.387 19.8791 9.67094 20.6067 8.70684 20.6082C7.75113 20.6098 7.00992 19.8753 7.04122 18.8866C7.08626 17.4605 7.17862 16.0358 7.25038 14.6105C7.29312 13.7554 7.33434 12.8995 7.37556 12.0445C7.39617 11.6261 7.41068 11.2077 7.43587 10.7901C7.44579 10.6244 7.39083 10.5 7.27251 10.3855C6.9313 10.0541 6.59924 9.71208 6.26032 9.37769C6.08933 9.20896 5.99849 9.01962 6.00002 8.76997C6.00689 7.38887 6.00307 6.00776 6.00384 4.62666C6.00384 4.56024 6.00155 4.49152 6.01452 4.42739C6.06567 4.17392 6.21833 4.0197 6.48016 4.00291C6.74199 3.98611 6.92519 4.11666 6.99542 4.36403C7.03893 4.51672 7.04504 4.68392 7.04504 4.84424C7.04885 6.02532 7.05114 7.2064 7.04351 8.38748C7.04198 8.60277 7.09923 8.76692 7.25877 8.91732C7.59159 9.23034 7.90456 9.56474 8.23356 9.88234C8.41676 10.0595 8.50837 10.261 8.49386 10.5183C8.41905 11.8574 8.34806 13.1973 8.2786 14.5372C8.23433 15.3923 8.19311 16.2481 8.15494 17.1032C8.12822 17.7117 8.09616 18.3201 8.09005 18.9294C8.08547 19.3485 8.3557 19.5814 8.76485 19.5546C9.10759 19.5325 9.32972 19.3042 9.32438 18.9263C9.31522 18.2888 9.28927 17.6513 9.25797 17.0146C9.2137 16.1214 9.15415 15.2289 9.10759 14.3364C9.04347 13.1011 8.99156 11.8651 8.9221 10.6298C8.90301 10.2984 8.99767 10.0419 9.24423 9.81821C9.51903 9.56932 9.7572 9.27844 10.0396 9.03871C10.3053 8.81273 10.3808 8.55162 10.3755 8.21341C10.3579 7.09951 10.3679 5.98486 10.3702 4.8702C10.3702 4.7282 10.3763 4.5839 10.4022 4.44419C10.4564 4.14797 10.664 3.98306 10.9396 4.00138C11.2106 4.01894 11.4014 4.21362 11.4083 4.51595C11.419 4.97251 11.4129 5.43058 11.4129 5.88713C11.4129 6.16351 11.4129 6.43988 11.4129 6.71549L11.4121 6.71626Z" fill="#FFFCF7"/>
<path d="M8.4954 6.4402C8.4954 7.06853 8.49921 7.69686 8.49387 8.32442C8.49082 8.64813 8.34349 8.84053 8.08243 8.89549C7.81755 8.95123 7.5771 8.82067 7.50076 8.56186C7.46412 8.43589 7.44809 8.29999 7.44809 8.16868C7.44427 7.02654 7.44504 5.8844 7.44656 4.74225C7.44656 4.64759 7.45114 4.55139 7.46946 4.45901C7.53206 4.14675 7.74274 3.97727 8.02594 4.00246C8.28777 4.02613 8.48624 4.23073 8.49082 4.52696C8.5015 5.16445 8.49387 5.80194 8.49387 6.4402C8.49387 6.4402 8.49463 6.4402 8.4954 6.4402Z" fill="#FFFCF7"/>
<path d="M8.91598 6.44997C8.91598 5.84073 8.91293 5.23148 8.91675 4.62224C8.9198 4.23211 9.11522 4.00231 9.43277 4.00002C9.73581 3.99773 9.95566 4.21608 9.95871 4.58865C9.97016 5.82546 9.97016 7.06303 9.95871 8.30061C9.95566 8.69379 9.73505 8.91825 9.42284 8.91061C9.10758 8.90222 8.91827 8.67165 8.91598 8.2777C8.91217 7.66846 8.91522 7.05921 8.91522 6.44997H8.91598Z" fill="#FFFCF7"/>
</g>
<defs>
<clipPath id="clip0_1119_877">
<rect width="24" height="24" fill="white"/>
</clipPath>
</defs>
</svg>
