<svg width="335" height="103" viewBox="0 0 335 103" fill="none" xmlns="http://www.w3.org/2000/svg">
<path d="M215.07 45.7343C215.07 46.2211 214.918 46.6471 214.614 47.0122C214.309 47.3773 213.944 47.6816 213.518 47.925C213.092 48.1075 212.636 48.2597 212.149 48.3814C211.723 48.5031 211.358 48.5639 211.054 48.5639C209.776 48.5639 208.68 47.8946 207.768 46.5558C206.855 45.1562 206.094 43.6349 205.486 41.9919C204.877 40.288 204.421 38.7058 204.117 37.2454C203.873 35.7849 203.751 34.9938 203.751 34.8721C203.386 35.5415 202.991 36.6673 202.565 38.2495C202.2 39.8316 201.743 41.4442 201.196 43.0872C200.648 44.6694 199.948 46.0994 199.096 47.3773C198.305 48.5944 197.271 49.2029 195.993 49.2029C195.384 49.2029 194.806 48.8378 194.258 48.1075C193.711 47.3773 193.194 46.4341 192.707 45.2779C192.22 44.1217 191.733 42.8134 191.246 41.3529C190.82 39.8925 190.364 38.4624 189.877 37.0628C189.451 35.6632 189.025 34.3549 188.599 33.1379C188.173 31.86 187.747 30.8559 187.321 30.1257C186.956 31.0384 186.622 32.2859 186.317 33.8681C186.074 35.4502 185.861 37.1237 185.678 38.8884C185.496 40.5923 185.344 42.2961 185.222 44C185.1 45.7039 185.039 47.1947 185.039 48.4726C185.039 49.3246 184.796 49.9331 184.309 50.2982C183.883 50.6633 183.427 50.8459 182.94 50.8459C182.271 50.8459 181.601 50.4199 180.932 49.568C180.262 48.6552 179.593 47.499 178.924 46.0994C178.254 44.6998 177.615 43.1176 177.007 41.3529C176.459 39.5882 175.942 37.8235 175.455 36.0588C175.029 34.294 174.694 32.6206 174.451 31.0384C174.208 29.3954 174.086 28.0263 174.086 26.9309C174.086 26.1398 174.116 25.4096 174.177 24.7402C174.238 24.1926 174.268 23.6753 174.268 23.1885C174.329 22.7017 174.36 22.4278 174.36 22.367C174.36 22.1844 174.299 22.0627 174.177 22.0019C174.116 21.941 174.086 21.7889 174.086 21.5455C174.086 21.3629 174.299 21.0891 174.725 20.724C175.212 20.298 175.698 20.085 176.185 20.085C177.037 20.085 177.585 20.2676 177.828 20.6327C178.133 20.9978 178.285 21.4238 178.285 21.9106C178.285 22.0931 178.254 22.367 178.193 22.7321C178.193 23.0972 178.193 23.9187 178.193 25.1966C178.193 26.0486 178.346 27.3265 178.65 29.0303C178.954 30.7342 179.319 32.4685 179.745 34.2332C180.171 35.9979 180.597 37.6409 181.023 39.1622C181.51 40.6227 181.905 41.5355 182.21 41.9006C182.331 41.6572 182.392 41.3833 182.392 41.0791C182.453 40.714 182.514 40.4401 182.575 40.2576L183.579 32.7727C183.822 30.8863 184.309 28.9086 185.039 26.8396C185.83 24.7098 186.652 23.0668 187.504 21.9106C187.808 21.4238 188.143 21.1804 188.508 21.1804C188.873 21.1804 189.208 21.4542 189.512 22.0019C190.547 23.7057 191.307 25.4096 191.794 27.1135C192.342 28.7565 192.798 30.3995 193.163 32.0425C193.589 33.6247 194.045 35.2373 194.532 36.8803C195.08 38.4624 195.901 40.075 196.997 41.718C197.484 40.927 198.092 39.6491 198.822 37.8843C199.553 36.0588 200.283 34.2332 201.013 32.4076C201.804 30.5821 202.534 28.9999 203.204 27.6611C203.873 26.2615 204.39 25.5617 204.756 25.5617C204.938 25.5617 205.242 25.5922 205.668 25.653C206.094 25.7139 206.399 25.7443 206.581 25.7443C207.129 25.7443 207.585 26.3832 207.95 27.6611C208.315 28.8782 208.62 30.3386 208.863 32.0425C209.167 33.6855 209.441 35.359 209.685 37.0628C209.989 38.7058 210.323 39.9533 210.689 40.8053C210.932 41.4138 211.297 41.9919 211.784 42.5395C212.271 43.0872 212.758 43.6045 213.244 44.0913C213.853 44.639 214.461 45.1866 215.07 45.7343Z" fill="#878C71"/>
<path d="M167.852 11.5959C167.061 15.7947 166.331 19.8414 165.662 23.7359C165.357 25.3789 165.053 27.1132 164.749 28.9388C164.445 30.7035 164.14 32.4682 163.836 34.233C163.593 35.9368 163.349 37.5798 163.106 39.162C162.923 40.6833 162.771 42.0829 162.65 43.3608C162.406 45.3081 162.224 47.5292 162.102 50.0242C161.98 52.5191 161.858 54.8923 161.737 57.1439C161.615 59.7605 161.554 62.4076 161.554 65.0851C161.554 65.6328 161.493 66.2413 161.372 66.9107C161.25 67.5801 161.189 68.2494 161.189 68.9188C161.189 69.5273 161.037 70.0446 160.733 70.4705C160.489 70.8965 160.094 71.1095 159.546 71.1095C159.059 71.1095 158.664 70.714 158.359 69.9229C158.116 69.1926 157.903 68.3103 157.72 67.2758C157.538 66.3022 157.416 65.2981 157.355 64.2636C157.295 63.29 157.264 62.5902 157.264 62.1642C157.264 61.6774 157.264 61.0689 157.264 60.3386C157.264 59.6693 157.295 58.6348 157.355 57.2352C157.477 55.8964 157.629 54.1317 157.812 51.941C157.994 49.6895 158.268 46.7685 158.633 43.1783C158.633 43.1174 158.207 42.8131 157.355 42.2655C156.564 41.7178 155.56 41.0484 154.343 40.2573C153.187 39.4054 151.97 38.4926 150.692 37.519C149.475 36.5454 148.441 35.6021 147.589 34.6894C147.467 34.5677 147.284 34.2938 147.041 33.8678C146.797 33.4419 146.676 32.9246 146.676 32.3161C146.676 32.0118 146.828 31.7076 147.132 31.4033C147.436 31.0382 147.771 30.8557 148.136 30.8557C148.38 30.8557 148.623 30.9774 148.866 31.2208C150.266 32.4378 151.879 33.807 153.704 35.3283C155.53 36.7888 157.325 38.1275 159.09 39.3446C159.211 38.2492 159.455 36.5758 159.82 34.3242C160.246 32.0727 160.672 29.669 161.098 27.1132C161.524 24.4966 161.919 21.9712 162.284 19.5371C162.71 17.103 163.015 15.1557 163.197 13.6953C163.197 13.4519 163.258 13.0563 163.38 12.5087C163.502 11.961 163.684 11.4133 163.927 10.8657C164.171 10.318 164.445 9.86159 164.749 9.49647C165.053 9.07051 165.388 8.85752 165.753 8.85752C165.936 8.85752 166.331 9.04008 166.94 9.4052C167.548 9.70946 167.852 10.4397 167.852 11.5959Z" fill="#878C71"/>
<path d="M141.78 60.3602C141.78 61.5898 141.537 62.6877 141.049 63.6539C140.562 64.7078 139.983 65.5862 139.313 66.2888C138.643 66.9914 137.943 67.5184 137.212 67.8697C136.481 68.3089 135.872 68.5285 135.384 68.5285C133.922 68.5285 132.217 68.1772 130.267 67.4745C128.379 66.8597 126.613 65.8057 124.968 64.3126C123.262 62.9073 121.831 61.0629 120.674 58.7793C119.516 56.5835 118.938 53.8607 118.938 50.611C118.938 50.2597 118.998 49.9083 119.12 49.557C119.242 49.2935 119.455 49.1618 119.76 49.1618C120.186 49.1618 120.734 49.8205 121.404 51.138C122.014 52.5433 122.866 54.0803 123.963 55.7491C125.059 57.4179 126.46 58.911 128.166 60.2285C129.872 61.6338 132.064 62.3364 134.745 62.3364C135.598 62.3364 136.176 62.2047 136.481 61.9412C136.846 61.6777 137.029 60.7994 137.029 59.3062C137.029 57.9009 136.877 56.3639 136.572 54.6951C136.328 53.0263 136.024 51.3575 135.658 49.6888C135.293 48.1078 134.927 46.5708 134.562 45.0776C134.257 43.5845 134.014 42.311 133.831 41.257C133.77 40.9935 133.557 39.8956 133.191 37.9633C132.887 35.9432 132.552 33.6596 132.186 31.1125C131.821 28.4776 131.486 25.9305 131.181 23.4712C130.877 21.012 130.724 19.2114 130.724 18.0696C130.724 17.4548 130.785 16.6204 130.907 15.5664C131.029 14.5125 131.425 13.9855 132.095 13.9855C132.399 13.9855 132.735 14.5564 133.1 15.6982C133.465 16.7522 133.831 18.1135 134.196 19.7823C134.623 21.3633 134.988 23.1199 135.293 25.0522C135.658 26.9845 135.963 28.8289 136.207 30.5855C136.511 32.2543 136.755 33.7035 136.938 34.9332C137.12 36.1628 137.242 36.9094 137.303 37.1728C137.425 37.8755 137.729 39.149 138.217 40.9935C138.704 42.8379 139.191 44.9459 139.679 47.3173C140.227 49.6009 140.714 51.9284 141.141 54.2999C141.567 56.6713 141.78 58.6914 141.78 60.3602Z" fill="#878C71"/>
<path d="M134.074 4.11138C134.439 3.67861 134.622 3.39009 134.622 3.24583C134.622 2.88518 134.409 2.52453 133.982 2.16388C133.556 1.73111 133.038 1.37046 132.429 1.08194C131.881 0.721295 131.302 0.468841 130.693 0.324583C130.084 0.108193 129.596 0 129.231 0C128.683 0 128.226 0.180321 127.86 0.540968C127.495 0.829486 127.19 1.2262 126.947 1.73111C126.764 2.16388 126.612 2.63273 126.49 3.13763C126.429 3.64254 126.398 4.07532 126.398 4.43596C126.398 5.30152 126.825 5.98675 127.678 6.49166C128.591 6.99656 129.536 7.24901 130.51 7.24901C130.754 7.24901 131.089 7.06869 131.515 6.70805C132.003 6.3474 132.459 5.95069 132.886 5.51791C133.373 5.013 133.769 4.54416 134.074 4.11138Z" fill="#878C71"/>
<path d="M1 101.46C15.0923 102.752 29.1048 102.757 39.5258 94.6848C49.3847 87.048 55.4096 77.0818 61.8402 67.9437C65.2301 63.1265 70.3785 52.8426 77.7972 49.8754C85.601 46.7542 92.8806 61.1409 94.0722 62.7942C99.5034 70.3302 105.104 82.2675 115.433 87.4575C133.49 96.5311 141.83 66.0695 156.756 65.4141C171.912 64.7487 180.499 83.7699 189.052 89.8967C198.416 96.6057 205.858 83.1717 209.777 79.0557C222.38 65.8183 235.885 73.3151 251.1 80.0495C277.392 91.6869 304.097 91.9528 334 90.8904" stroke="#878C71" stroke-width="1.73438" stroke-linecap="round"/>
</svg>
