<svg width="22" height="22" viewBox="0 0 22 22" fill="none" xmlns="http://www.w3.org/2000/svg">
<path d="M18.9887 10.1733H2.98874C2.68207 10.1733 2.40207 10.04 2.2154 9.79997C2.02873 9.5733 1.94874 9.25338 2.01541 8.96004L3.14873 3.55998C3.52206 1.79998 4.32206 0 7.48206 0H14.5087C17.6687 0 18.4687 1.79998 18.8421 3.55998L19.9754 8.96004C20.0421 9.25338 19.9621 9.55997 19.7754 9.79997C19.5754 10.04 19.2954 10.1733 18.9887 10.1733ZM4.2154 8.17334H17.7487L16.8687 3.97331C16.5887 2.62664 16.2554 2 14.4954 2H7.46874C5.70874 2 5.37541 2.62664 5.09541 3.97331L4.2154 8.17334Z" fill="#FFFCF7"/>
<path d="M18.9468 21.1729H17.0668C15.2668 21.1729 14.8934 20.0661 14.7068 19.4661L14.5068 18.8662C14.2668 18.1862 14.2668 18.1862 13.5601 18.1862H8.4401C7.7201 18.1862 7.70678 18.2129 7.49345 18.8662L7.29344 19.4661C7.09343 20.0661 6.7201 21.1862 4.9201 21.1862H3.0401C2.17343 21.1862 1.3601 20.8262 0.773435 20.1862C0.213435 19.5729 -0.0665545 18.7328 0.0134455 17.9062L0.573443 11.8128C0.746777 9.91949 1.36011 8.17285 4.61344 8.17285H17.3734C20.6268 8.17285 21.2401 9.91949 21.4135 11.8128L21.9734 17.9062C22.0534 18.7328 21.7734 19.5595 21.2134 20.1862C20.6268 20.8129 19.8134 21.1729 18.9468 21.1729ZM16.7201 19.1462C16.7468 19.1462 16.8534 19.1729 17.0668 19.1729H18.9468C19.2534 19.1729 19.5334 19.0528 19.7334 18.8262C19.9201 18.6128 20.0134 18.3595 19.9868 18.0795L19.4268 11.9862C19.3068 10.7328 19.2534 10.1595 17.3734 10.1595H4.61344C2.73344 10.1595 2.6801 10.7328 2.5601 11.9862L2.0001 18.0795C1.97343 18.3595 2.06677 18.6262 2.25344 18.8262C2.45344 19.0528 2.73343 19.1729 3.0401 19.1729H4.9201C5.21344 19.1729 5.29345 19.1328 5.30678 19.1328C5.30678 19.1195 5.3601 18.9595 5.4001 18.8395L5.60012 18.2395C5.86678 17.4262 6.28012 16.1862 8.45345 16.1862H13.5734C15.7201 16.1862 16.1201 17.3595 16.4135 18.2262L16.6268 18.8395C16.6401 18.9462 16.6801 19.0928 16.7201 19.1462Z" fill="#FFFCF7"/>
<path d="M2.98828 7.17285H1.98828C1.44161 7.17285 0.988281 6.71952 0.988281 6.17285C0.988281 5.62618 1.44161 5.17285 1.98828 5.17285H2.98828C3.53495 5.17285 3.98828 5.62618 3.98828 6.17285C3.98828 6.71952 3.53495 7.17285 2.98828 7.17285Z" fill="#FFFCF7"/>
<path d="M19.9883 7.17285H18.9883C18.4416 7.17285 17.9883 6.71952 17.9883 6.17285C17.9883 5.62618 18.4416 5.17285 18.9883 5.17285H19.9883C20.5349 5.17285 20.9883 5.62618 20.9883 6.17285C20.9883 6.71952 20.5349 7.17285 19.9883 7.17285Z" fill="#FFFCF7"/>
<path d="M7.98828 14.1729H4.98828C4.44161 14.1729 3.98828 13.7195 3.98828 13.1729C3.98828 12.6262 4.44161 12.1729 4.98828 12.1729H7.98828C8.53495 12.1729 8.98828 12.6262 8.98828 13.1729C8.98828 13.7195 8.53495 14.1729 7.98828 14.1729Z" fill="#FFFCF7"/>
<path d="M16.9883 14.1729H13.9883C13.4416 14.1729 12.9883 13.7195 12.9883 13.1729C12.9883 12.6262 13.4416 12.1729 13.9883 12.1729H16.9883C17.5349 12.1729 17.9883 12.6262 17.9883 13.1729C17.9883 13.7195 17.5349 14.1729 16.9883 14.1729Z" fill="#FFFCF7"/>
</svg>
