<svg width="25" height="25" viewBox="0 0 25 25" fill="none" xmlns="http://www.w3.org/2000/svg">
<path d="M15.6276 23.6976H9.3776C3.72135 23.6976 1.30469 21.2809 1.30469 15.6247V9.37467C1.30469 3.71842 3.72135 1.30176 9.3776 1.30176H14.5859C15.013 1.30176 15.3672 1.65592 15.3672 2.08301C15.3672 2.51009 15.013 2.86426 14.5859 2.86426H9.3776C4.57552 2.86426 2.86719 4.57259 2.86719 9.37467V15.6247C2.86719 20.4268 4.57552 22.1351 9.3776 22.1351H15.6276C20.4297 22.1351 22.138 20.4268 22.138 15.6247V10.4163C22.138 9.98926 22.4922 9.63509 22.9193 9.63509C23.3464 9.63509 23.7005 9.98926 23.7005 10.4163V15.6247C23.7005 21.2809 21.2839 23.6976 15.6276 23.6976Z" fill="#909A99"/>
<path d="M22.9193 11.198H18.7526C15.1901 11.198 13.8047 9.81259 13.8047 6.25009V2.08342C13.8047 1.77092 13.9922 1.47926 14.2839 1.36467C14.5755 1.23967 14.9089 1.31259 15.138 1.53134L23.4714 9.86467C23.6901 10.0834 23.763 10.4272 23.638 10.7188C23.513 11.0105 23.2318 11.198 22.9193 11.198ZM15.3672 3.96884V6.25009C15.3672 8.93759 16.0651 9.63551 18.7526 9.63551H21.0339L15.3672 3.96884Z" fill="#909A99"/>
<path d="M13.5391 14.3232H7.28906C6.86198 14.3232 6.50781 13.9691 6.50781 13.542C6.50781 13.1149 6.86198 12.7607 7.28906 12.7607H13.5391C13.9661 12.7607 14.3203 13.1149 14.3203 13.542C14.3203 13.9691 13.9661 14.3232 13.5391 14.3232Z" fill="#909A99"/>
<path d="M11.4557 18.4893H7.28906C6.86198 18.4893 6.50781 18.1351 6.50781 17.708C6.50781 17.2809 6.86198 16.9268 7.28906 16.9268H11.4557C11.8828 16.9268 12.237 17.2809 12.237 17.708C12.237 18.1351 11.8828 18.4893 11.4557 18.4893Z" fill="#909A99"/>
</svg>
