<svg width="158" height="51" viewBox="0 0 158 51" fill="none" xmlns="http://www.w3.org/2000/svg">
<path d="M183 40.3432C181.69 40.3432 180.281 40.4822 178.996 40.1638C175.117 39.2023 175.773 31.403 175.377 28.7727C174.489 22.8674 173.775 19.0633 172.029 13.278C171.134 10.3114 169.548 4.8406 166.94 2.35774C161.243 -3.06593 154.277 9.28938 152.531 12.6053C148.216 20.7998 145.501 29.7186 141.606 38.1009C140.812 39.8089 135.607 52.8076 130.884 49.6714C128.545 48.1185 125.821 41.6542 125.138 40.119C122.607 34.4271 120.041 27.2271 117.583 21.5074C115.432 16.5024 111.636 6.18785 104.735 5.31765C100.308 4.75938 97.366 10.8112 95.6192 13.5919C92.0806 19.225 89.1332 26.4756 83.7663 30.7235C73.9792 38.4702 63.3148 25.0619 53.8628 23.6377C50.6834 23.1586 48.4737 24.7693 46.0137 26.4855C41.0259 29.9649 36.6199 32.1793 30.4511 33.0332C20.758 34.3749 10.7675 33.8852 0.999991 33.8852" stroke="#C0B099" stroke-width="0.585209" stroke-linecap="round"/>
</svg>
