<svg width="240" height="45" viewBox="0 0 240 45" fill="none" xmlns="http://www.w3.org/2000/svg">
<path d="M239 39.0722C236.729 32.6192 234.771 26.1788 231.962 19.7664C231.754 19.2919 225.993 3.00141 219.024 1.14946C216.339 0.435757 212.981 2.43759 211.579 3.78298C207.768 7.43931 206.205 11.5808 204.012 15.5528C201.265 20.5274 199.671 25.6515 196.77 30.6044C193.758 35.7474 188.449 45.7019 178.381 43.8125C171.571 42.5344 152.853 29.1676 149.984 27.5657C143.719 24.0685 135.757 18.7479 124.19 20.516C119.904 21.1712 116.814 23.0857 113.572 24.6283C109.128 26.7428 100.646 32.6117 95.3456 34.6154C80.7021 40.1516 61.0266 33.3402 46.8913 30.7057C36.4891 28.7669 25.7216 26.8104 14.507 28.1329C10.0555 28.6579 5.45397 29.7159 0.999992 30.3208" stroke="#C0B099" stroke-width="0.5" stroke-linecap="round"/>
</svg>
