<svg width="350" height="138" viewBox="0 0 350 138" fill="none" xmlns="http://www.w3.org/2000/svg">
<path d="M0.999984 91.439C5.855 73.5142 19.2249 55.4065 27.7403 40.9743C36.2215 26.6002 55.6379 -12.4195 72.1483 5.71514C94.7233 30.511 109.355 71.3015 127.857 101.576C132.657 109.429 138.674 120.375 146.241 123.503C158.057 128.386 165.835 102.184 169.878 91.99C172.022 86.5811 183.244 42.7271 192.4 49.6789C202.204 57.1225 208.838 77.6267 215.957 89.1252C226.045 105.42 234.682 109.783 247.393 96.0668C252.735 90.3019 266.201 67.0917 273.496 78.6576C279.123 87.5782 280.121 95.61 290.05 92.1002C296.67 89.7599 300.927 84.2813 307.558 89.4557C313.023 93.7199 317.551 92.8879 323.634 93.8631C333.246 95.4039 338.229 107.372 347.271 108.738C347.859 108.827 368.571 111.477 358.492 117.222C356.87 118.147 357.578 111.678 358.81 109.95C364.558 101.89 372.938 103.273 379.821 107.416C395.103 116.615 399.439 141.521 417.782 136.284C434.903 131.397 450.611 121.024 468 117.222" stroke="#C0B099" stroke-linecap="round"/>
</svg>
