<svg width="197" height="56" viewBox="0 0 197 56" fill="none" xmlns="http://www.w3.org/2000/svg">
<path d="M1 49.2555C2.86089 41.0766 4.4649 32.9135 6.76667 24.786C6.93699 24.1846 11.657 3.53674 17.3667 1.18944C19.5671 0.284836 22.3177 2.82211 23.4667 4.52736C26.5891 9.16166 27.8698 14.4108 29.6667 19.4453C31.917 25.7505 33.2235 32.2452 35.6 38.5228C38.0677 45.0414 42.4181 57.6586 50.6667 55.2638C56.2465 53.6438 71.5822 36.7017 73.9333 34.6714C79.0662 30.2388 85.5901 23.495 95.0667 25.736C98.5788 26.5666 101.111 28.9931 103.767 30.9483C107.407 33.6284 114.358 41.067 118.7 43.6067C130.698 50.6237 146.819 41.9904 158.4 38.6512C166.923 36.1939 175.745 33.714 184.933 35.3903C188.581 36.0557 192.351 37.3967 196 38.1633" stroke="#C0B099" stroke-width="0.5" stroke-linecap="round"/>
</svg>
