<svg width="279" height="51" viewBox="0 0 279 51" fill="none" xmlns="http://www.w3.org/2000/svg">
<path d="M329 44.3364C325.87 36.9912 323.172 29.6603 319.3 22.3612C319.014 21.8211 311.074 3.27814 301.47 1.17013C297.769 0.35774 293.142 2.63636 291.21 4.16778C285.958 8.32967 283.804 13.0438 280.781 17.565C276.996 23.2274 274.798 29.06 270.801 34.6977C266.65 40.5519 259.333 51.8828 245.458 49.7321C236.073 48.2773 210.277 33.0623 206.322 31.2389C197.689 27.2582 186.715 21.2019 170.775 23.2144C164.867 23.9603 160.609 26.1395 156.141 27.8954C150.017 30.3022 138.327 36.9826 131.023 39.2634C110.841 45.5651 83.7257 37.8118 64.2451 34.813C49.9094 32.6062 35.0701 30.3791 19.6147 31.8846C13.4799 32.4821 7.13825 33.6864 0.999996 34.3749" stroke="#C0B099" stroke-linecap="round"/>
</svg>
