<svg width="181" height="37" viewBox="0 0 181 37" fill="none" xmlns="http://www.w3.org/2000/svg">
<path d="M1 35.5788C8.57517 36.4375 16.1074 36.4405 21.709 31.0755C27.0086 25.9998 30.2472 19.3759 33.7039 13.3024C35.5261 10.1007 38.2935 3.26569 42.2814 1.29356C46.4762 -0.780917 50.3893 8.78098 51.0298 9.87987C53.9493 14.8885 56.96 22.8225 62.512 26.2719C72.2185 32.3026 76.7016 12.0567 84.7247 11.6212C92.8715 11.1789 97.4876 23.821 102.085 27.8931C107.119 32.3522 111.119 23.4234 113.225 20.6878C120 11.8898 127.259 16.8724 135.438 21.3483C149.571 29.0829 163.926 29.2597 180 28.5536" stroke="#FFFCF7" stroke-width="0.5" stroke-linecap="round"/>
</svg>
