<svg width="235" height="37" viewBox="0 0 235 37" fill="none" xmlns="http://www.w3.org/2000/svg">
<path d="M234 31.9545C231.776 26.708 229.86 21.4716 227.11 16.258C226.906 15.8722 221.266 2.62724 214.444 1.12152C211.815 0.541243 208.528 2.16883 207.155 3.2627C203.424 6.23548 201.894 9.60268 199.747 12.8321C197.058 16.8767 195.497 21.0429 192.657 25.0698C189.709 29.2513 184.511 37.3449 174.655 35.8087C167.988 34.7695 149.663 23.9016 146.854 22.5992C140.721 19.7559 132.926 15.4299 121.602 16.8674C117.406 17.4002 114.381 18.9568 111.207 20.211C106.857 21.9302 98.5523 26.7019 93.3636 28.331C79.0276 32.8322 59.7655 27.2942 45.9272 25.1522C35.7436 23.5759 25.2023 21.9851 14.2233 23.0604C9.86531 23.4872 5.36041 24.3475 1 24.8392" stroke="#C0B099" stroke-width="0.5" stroke-linecap="round"/>
</svg>
