<svg width="177" height="70" viewBox="0 0 177 70" fill="none" xmlns="http://www.w3.org/2000/svg">
<path d="M-199.418 63.9562C-199.418 54.2222 -210.188 -9.49185 -175.52 2.49566C-155.522 9.41053 -147.128 26.1547 -140.614 38.4344C-139.823 39.9266 -134.242 54.6141 -134.242 52.3238C-134.242 47.2218 -137.121 36.2431 -129.896 32.5314C-123.537 29.2645 -103.879 64.3715 -100.205 67.2549C-88.9514 76.0873 -74.8582 51.7477 -59.6504 52.4106C-48.4245 52.8999 -42.8127 56.7411 -34.0141 49.5459C-24.999 42.1737 -18.5938 30.9572 -17.213 21.854C-16.6895 18.4027 -18.791 19.2862 -20.9788 21.1595C-26.3492 25.7578 -27.5804 32.1292 -27.062 37.5663C-25.6729 52.1363 -11.052 66.1615 13.7822 54.2336C21.1472 50.6962 28.1625 44.9012 33.48 40.3442C35.8586 38.3058 43.8188 27.7503 49.557 27.0625C58.4947 25.9911 70.0833 46.1883 78.2348 49.0251C86.8718 52.0308 98.2227 43.7184 104.45 41.2123C116.216 36.4775 116.07 43.9373 123.859 47.2889C138.733 53.6895 160.047 43.4566 176 53.0183" stroke="#C0B099" stroke-width="0.655652" stroke-linecap="round"/>
</svg>
