<svg width="311" height="86" viewBox="0 0 311 86" fill="none" xmlns="http://www.w3.org/2000/svg">
<path d="M312 68.2294C309.762 68.2294 307.353 68.4668 305.158 67.9228C298.529 66.2798 299.65 52.9523 298.974 48.4577C297.456 38.3668 296.236 31.8664 293.253 21.9806C291.724 16.9112 289.013 7.56279 284.557 3.3201C274.821 -5.94783 262.918 15.1648 259.935 20.831C252.561 34.8338 247.922 50.0741 241.265 64.3976C239.909 67.3163 231.016 89.5284 222.944 84.1693C218.947 81.5156 214.293 70.4695 213.126 67.8462C208.801 58.12 204.417 45.8167 200.216 36.0429C196.541 27.4904 190.053 9.86495 178.261 8.37796C170.697 7.42399 165.669 17.7654 162.684 22.517C156.638 32.1427 151.601 44.5324 142.43 51.7913C125.706 65.0287 107.483 42.1168 91.3315 39.6831C85.8985 38.8644 82.1227 41.6168 77.9189 44.5494C69.396 50.4949 61.867 54.2789 51.3259 55.738C34.7622 58.0307 17.6905 57.194 0.999992 57.194" stroke="#C0B099" stroke-linecap="round"/>
</svg>
