<svg width="189" height="51" viewBox="0 0 189 51" fill="none" xmlns="http://www.w3.org/2000/svg">
<path d="M0.626368 49.9221C0.986607 42.2913 4.17623 35.5393 7.56657 28.5396C11.1793 21.0808 14.8345 13.5402 19.1924 6.36866C21.3386 2.83683 24.5051 -2.40983 28.8061 3.0527C34.1642 9.85773 36.7458 18.3789 40.2314 25.8743C41.6924 29.0159 46.6376 44.0044 52.4772 44.8976C60.3984 46.1092 68.5384 13.2087 76.9195 17.7779C81.5867 20.3223 89.9894 41.6697 95.6862 37.8832C102.286 33.4966 108.15 22.6895 118.171 23.3605C124.207 23.7647 129.12 31.4584 133.932 34.135C150.809 43.5216 170.751 34.6711 188.577 41.225" stroke="#C0B099" stroke-width="0.5" stroke-linecap="round"/>
</svg>
