<svg width="418" height="65" viewBox="0 0 418 65" fill="none" xmlns="http://www.w3.org/2000/svg">
<path d="M417 56.7182C413.03 47.2744 409.608 37.8489 404.698 28.4645C404.334 27.77 394.265 3.92904 382.084 1.21874C377.39 0.174237 371.522 3.10389 369.071 5.07286C362.41 10.4239 359.678 16.4848 355.844 22.2979C351.044 29.5781 348.256 37.0772 343.187 44.3257C337.922 51.8524 328.641 66.4208 311.044 63.6556C299.141 61.7851 266.425 42.2229 261.409 39.8786C250.459 34.7605 236.541 26.9738 216.324 29.5614C208.832 30.5204 203.431 33.3222 197.764 35.5798C189.997 38.6743 175.171 47.2633 165.907 50.1958C140.311 58.2979 105.92 48.3295 81.2133 44.4739C63.0314 41.6366 44.2109 38.7732 24.6089 40.7087C16.8282 41.477 8.78509 43.0254 0.999982 43.9106" stroke="#FFFCF7" stroke-linecap="round"/>
</svg>
