<svg width="120" height="23" viewBox="0 0 120 23" fill="none" xmlns="http://www.w3.org/2000/svg">
<path d="M1 21.7473C5.99369 22.2625 10.9591 22.2643 14.6518 19.0453C18.1453 15.9999 20.2803 12.0255 22.559 8.38143C23.7602 6.46042 25.5846 2.35941 28.2134 1.17614C30.9787 -0.06855 33.5583 5.66859 33.9805 6.32792C35.9051 9.33312 37.8899 14.0935 41.5498 16.1632C47.9485 19.7815 50.9038 7.63404 56.1928 7.37269C61.5633 7.10732 64.6063 14.6926 67.6369 17.1359C70.9554 19.8113 73.5923 14.4541 74.9809 12.8127C79.4468 7.53388 84.2325 10.5235 89.6239 13.209C98.9406 17.8498 108.404 17.9558 119 17.5322" stroke="#C0B099" stroke-width="0.534687" stroke-linecap="round"/>
</svg>
