<svg width="24" height="24" viewBox="0 0 24 24" fill="none" xmlns="http://www.w3.org/2000/svg">
<path d="M8.57828 22.5503C8.35828 22.5503 8.12828 22.5103 7.91828 22.4203C7.44828 22.2203 7.08828 21.8303 6.92828 21.3403L6.48828 20.0203C6.28828 19.4203 6.46828 18.6703 6.90828 18.2203L9.17828 15.9403C9.20828 15.9103 9.24828 15.8003 9.24828 15.7503V13.2803L4.68828 15.2503C4.07828 15.5103 3.45828 15.4803 2.98828 15.1703C2.51828 14.8603 2.23828 14.3003 2.23828 13.6503V12.3603C2.23828 11.3803 2.93828 10.3303 3.82828 9.98031L9.23828 7.64031V4.80031C9.23828 3.59031 10.0883 2.20031 11.1683 1.64031C11.6883 1.38031 12.2883 1.38031 12.7983 1.64031C13.8883 2.20031 14.7383 3.58031 14.7383 4.79031V7.63031L20.1783 9.97031C21.0683 10.3503 21.7483 11.3703 21.7483 12.3603V13.6503C21.7483 14.3103 21.4783 14.8603 20.9983 15.1703C20.5183 15.4803 19.9083 15.5103 19.2983 15.2603L14.7383 13.2903V15.7603C14.7383 15.8003 14.7783 15.9003 14.8083 15.9303L17.0883 18.2203C17.5283 18.6603 17.7083 19.4303 17.5083 20.0203L17.0683 21.3403C16.8983 21.8303 16.5383 22.2203 16.0583 22.4103C15.5883 22.6003 15.0683 22.5803 14.6183 22.3603C14.5683 22.3303 14.5183 22.3003 14.4683 22.2603L12.1383 20.3003C12.0583 20.2303 11.8983 20.2403 11.8283 20.3003L9.49828 22.2603C9.45828 22.3003 9.40828 22.3303 9.35828 22.3503C9.11828 22.4903 8.84828 22.5503 8.57828 22.5503ZM9.55828 11.6403C9.78828 11.6403 10.0083 11.7003 10.1983 11.8303C10.5483 12.0603 10.7483 12.4503 10.7483 12.9103V15.7603C10.7483 16.1903 10.5383 16.7003 10.2383 17.0003L7.96828 19.2803C7.92828 19.3303 7.88828 19.4803 7.90828 19.5403L8.34828 20.8703C8.37828 20.9703 8.44828 21.0103 8.48828 21.0303C8.51828 21.0403 8.56828 21.0603 8.62828 21.0403L10.8683 19.1503C11.4983 18.6103 12.4883 18.6103 13.1183 19.1503L15.3483 21.0303C15.4183 21.0403 15.4683 21.0303 15.4983 21.0203C15.5383 21.0003 15.6183 20.9603 15.6483 20.8603L16.0883 19.5403C16.1083 19.4703 16.0683 19.3203 16.0283 19.2803L13.7583 17.0003C13.4583 16.7203 13.2383 16.2003 13.2383 15.7603V12.9103C13.2383 12.4603 13.4283 12.0703 13.7683 11.8403C14.1083 11.6103 14.5483 11.5803 14.9683 11.7603L19.8883 13.8803C20.0383 13.9403 20.1383 13.9403 20.1683 13.9203C20.1983 13.9003 20.2383 13.8103 20.2383 13.6503V12.3603C20.2383 11.9803 19.9183 11.4903 19.5783 11.3503L13.9983 8.94031C13.5583 8.75031 13.2483 8.27031 13.2483 7.79031V4.79031C13.2483 4.13031 12.7283 3.28031 12.1283 2.98031C12.0483 2.94031 11.9483 2.94031 11.8583 2.98031C11.2783 3.28031 10.7483 4.15031 10.7483 4.80031V7.80031C10.7483 8.27031 10.4383 8.76031 9.99828 8.95031L4.41828 11.3603C4.06828 11.5003 3.74828 11.9903 3.74828 12.3603V13.6503C3.74828 13.8103 3.78828 13.9003 3.81828 13.9203C3.84828 13.9403 3.94828 13.9403 4.09828 13.8803L9.00828 11.7603C9.18828 11.6803 9.37828 11.6403 9.55828 11.6403Z" fill="#909A99"/>
</svg>
